<?xml version="1.0" standalone="no"?>
<!DOCTYPE svg PUBLIC "-//W3C//DTD SVG 20010904//EN"
 "http://www.w3.org/TR/2001/REC-SVG-20010904/DTD/svg10.dtd">
<svg version="1.0" xmlns="http://www.w3.org/2000/svg"
 width="216.000000pt" height="180.000000pt" viewBox="0 0 216.000000 180.000000"
 preserveAspectRatio="xMidYMid meet">

<g transform="translate(0.000000,180.000000) scale(0.100000,-0.100000)"
fill="#000000" stroke="none">
<path d="M1192 1641 c-34 -5 -65 -10 -67 -13 -6 -6 91 -238 104 -251 13 -13
147 107 197 175 48 66 51 73 30 81 -27 10 -201 15 -264 8z m146 -18 c-15 -2
-42 -2 -60 0 -18 2 -6 4 27 4 33 0 48 -2 33 -4z m-168 -14 c0 -15 -18 -19 -23
-6 -3 8 1 14 9 14 8 0 14 -4 14 -8z m40 1 c12 -7 10 -9 -8 -7 -12 0 -22 5 -22
9 0 11 12 10 30 -2z"/>
<path d="M515 1586 c-22 -7 -61 -23 -87 -34 -26 -12 -52 -22 -57 -22 -13 0
-14 -20 -2 -38 7 -11 19 -12 62 -3 59 12 109 3 140 -25 20 -18 20 -19 148 38
l63 28 -25 20 c-62 49 -157 63 -242 36z"/>
<path d="M1670 1546 c0 -9 5 -16 10 -16 6 0 10 4 10 9 0 6 -4 13 -10 16 -5 3
-10 -1 -10 -9z"/>
<path d="M1716 1471 c-13 -14 -14 -24 -6 -46 8 -22 13 -25 24 -16 10 8 16 9
21 1 10 -16 35 -12 29 5 -5 11 1 15 24 15 27 0 42 14 42 40 0 4 -19 4 -41 -1
-33 -8 -45 -7 -59 6 -15 14 -18 13 -34 -4z"/>
<path d="M1888 1433 c-3 -23 0 -46 9 -58 18 -27 17 -80 -3 -96 -13 -11 -14
-15 -2 -23 17 -14 38 -61 38 -86 0 -11 -9 -24 -20 -30 -26 -14 -15 -33 16 -27
25 4 32 -7 13 -18 -16 -11 -30 -56 -23 -77 3 -11 20 -26 37 -33 l30 -13 -52
-11 c-29 -6 -77 -11 -107 -11 -52 0 -56 2 -75 35 -23 38 -49 47 -49 16 0 -10
-3 -32 -6 -49 -5 -25 0 -37 31 -71 21 -23 48 -44 60 -47 21 -5 23 -12 29 -117
4 -62 8 -159 9 -217 l2 -106 64 -112 c53 -92 69 -112 85 -110 18 3 21 9 18 48
-2 25 -9 70 -16 100 -8 30 -17 73 -21 95 -6 40 -6 40 11 16 23 -33 90 -61 147
-61 47 0 47 0 47 33 -1 25 -8 36 -33 52 -41 26 -57 59 -57 120 0 62 -17 227
-26 248 -4 10 4 21 23 31 15 9 43 29 62 45 l34 30 -26 12 c-22 10 -31 9 -53
-6 -31 -20 -65 -10 -84 25 -9 17 -8 20 10 20 11 0 29 9 40 20 24 24 28 49 5
30 -12 -10 -18 -10 -30 0 -12 10 -12 15 2 36 12 19 13 28 4 37 -15 15 -14 27
4 27 19 0 19 24 1 39 -19 16 -15 35 15 67 l24 26 -24 -7 c-27 -8 -41 6 -41 43
0 12 -9 31 -20 42 -11 11 -20 31 -20 44 0 15 -13 36 -35 55 -20 17 -37 31 -39
31 -2 0 -6 -17 -8 -37z"/>
<path d="M1735 1321 c-6 -11 9 -23 19 -14 9 9 7 23 -3 23 -6 0 -12 -4 -16 -9z"/>
<path d="M1372 1254 c-29 -20 -28 -86 1 -90 11 -1 22 -6 25 -10 4 -4 -1 -4
-11 -1 -25 9 -34 -19 -13 -42 16 -18 15 -19 -9 -25 -14 -4 -66 -47 -116 -96
l-89 -89 0 -70 c0 -46 4 -71 12 -73 9 -3 13 -36 13 -111 l0 -107 253 0 252 0
0 100 c0 60 4 100 10 100 6 0 10 7 10 15 0 8 -4 15 -10 15 -5 0 -10 23 -10 50
l0 50 -59 0 -59 0 -38 91 c-25 58 -49 99 -65 112 -26 18 -26 20 -9 37 15 15
18 33 17 87 l-2 68 -40 3 c-25 2 -49 -3 -63 -14z m98 -57 c0 -4 -6 -2 -14 5
-8 7 -12 17 -9 22 5 8 23 -12 23 -27z m-50 16 c-8 -3 -23 -12 -32 -21 -11 -9
-18 -11 -18 -4 0 13 29 32 50 31 13 -1 13 -1 0 -6z m20 -38 c0 -8 -7 -15 -15
-15 -13 0 -14 3 -3 15 16 18 18 18 18 0z m29 -182 c12 -49 24 -96 27 -105 5
-16 -3 -18 -65 -18 l-71 0 0 75 c0 95 18 135 59 135 28 0 29 -3 50 -87z m-199
-102 c0 -12 -20 -25 -27 -18 -7 7 6 27 18 27 5 0 9 -4 9 -9z m400 -191 l0
-150 -236 0 c-211 0 -235 2 -230 16 3 9 6 76 6 150 l0 134 230 0 230 0 0 -150z"/>
<path d="M1625 1250 c3 -5 8 -10 11 -10 2 0 4 5 4 10 0 6 -5 10 -11 10 -5 0
-7 -4 -4 -10z"/>
<path d="M80 1234 c-19 -7 -45 -13 -57 -13 -13 -1 -23 -5 -23 -9 0 -4 27 -4
60 2 38 6 60 15 60 23 0 7 -1 12 -2 12 -2 -1 -19 -7 -38 -15z"/>
<path d="M249 1179 c-16 -17 -33 -28 -38 -25 -16 10 -72 -20 -84 -45 -14 -27
-7 -93 12 -112 8 -8 10 -3 7 22 -2 18 3 46 11 63 l15 30 28 -27 c22 -21 28
-35 26 -61 -2 -18 -9 -40 -15 -48 -15 -17 -74 -14 -146 7 -29 9 -42 11 -31 4
45 -28 66 -52 57 -66 -7 -12 -15 -10 -44 8 -37 23 -47 25 -47 13 0 -4 12 -15
28 -24 61 -36 74 -54 66 -92 -7 -41 -33 -60 -70 -53 -21 4 -24 1 -24 -29 0
-30 3 -34 35 -40 l35 -6 0 -62 c0 -33 -9 -95 -20 -136 -26 -99 -25 -111 10
-215 16 -49 30 -96 30 -106 0 -10 10 -19 24 -21 32 -6 36 9 36 150 0 105 10
143 24 88 3 -13 40 -65 82 -115 65 -78 78 -89 94 -81 17 9 18 14 6 53 -7 23
-27 76 -44 117 -40 99 -49 220 -17 220 12 0 15 17 15 96 0 116 -23 224 -56
263 -22 26 -23 31 -9 44 8 9 15 22 15 31 0 8 7 19 16 24 13 7 14 15 6 45 -9
33 -8 37 8 37 10 0 22 -4 25 -10 11 -17 21 -11 20 13 -1 26 -33 77 -47 77 -6
0 -23 -14 -39 -31z"/>
<path d="M95 1193 c-37 -10 -68 -24 -63 -28 9 -9 108 16 102 26 -6 10 -7 10
-39 2z"/>
<path d="M890 1176 c-14 -8 -43 -17 -65 -20 -22 -4 -52 -18 -67 -31 -27 -23
-38 -43 -18 -30 7 4 7 -3 0 -20 -24 -63 -46 -90 -102 -123 -32 -19 -33 -22
-15 -46 13 -17 17 -17 88 14 112 49 129 63 125 108 -2 29 3 43 26 67 23 24 31
28 45 19 16 -10 18 -6 21 33 2 47 0 49 -38 29z"/>
<path d="M50 1133 c-14 -3 -28 -10 -32 -16 -9 -14 9 -37 25 -32 7 2 24 6 40 9
18 4 27 13 27 26 0 20 -9 22 -60 13z"/>
<path d="M830 594 c-36 -13 -77 -24 -92 -24 -28 0 -28 0 -28 -73 l0 -73 -47
-47 c-26 -26 -71 -64 -100 -84 -50 -34 -52 -38 -39 -57 43 -66 267 60 329 185
l25 48 45 -34 c24 -19 48 -42 51 -52 12 -31 36 -153 36 -184 0 -25 4 -29 29
-29 l28 0 7 109 c8 108 8 109 -25 172 -17 35 -47 88 -65 117 -40 61 -53 63
-154 26z"/>
<path d="M1303 448 c4 -24 12 -103 18 -176 10 -109 10 -135 -1 -142 -12 -8 -6
-30 9 -30 29 0 42 32 61 145 11 66 20 134 21 150 l1 30 9 -35 c4 -19 11 -88
14 -153 6 -104 9 -119 27 -128 24 -13 53 6 30 19 -9 6 -6 42 13 163 14 85 27
164 30 177 5 22 5 22 -116 22 l-121 0 5 -42z"/>
<path d="M450 209 c0 -28 18 -59 34 -59 17 0 16 50 -1 68 -18 18 -33 15 -33
-9z"/>
<path d="M353 178 c-15 -19 -22 -57 -13 -63 11 -7 40 35 40 57 0 21 -13 23
-27 6z"/>
<path d="M1954 139 c-9 -11 -15 -21 -12 -24 9 -10 68 8 68 20 0 22 -38 24 -56
4z"/>
<path d="M88 129 c-25 -14 -22 -29 5 -29 29 0 51 15 43 29 -9 14 -25 14 -48 0z"/>
<path d="M1019 128 c-24 -9 -24 -10 -4 -24 22 -16 66 -15 72 1 5 17 -41 33
-68 23z"/>
</g>
</svg>
